<svg width="20" height="20" viewBox="0 0 20 20" fill="none" xmlns="http://www.w3.org/2000/svg">
<path d="M16.6941 18.822C16.3801 17.471 14.5941 16.812 13.9711 16.6C13.2229 16.4163 12.4651 16.2745 11.7011 16.175C11.3172 16.1079 10.9562 15.9456 10.6511 15.703C10.5437 15.01 10.5202 14.3066 10.5811 13.608C10.7733 13.3152 10.9405 13.0068 11.0811 12.686C11.2411 12.1584 11.3634 11.62 11.4471 11.075C11.4471 11.075 11.8041 11.075 11.9311 10.463C12.097 10.0035 12.2052 9.52519 12.2531 9.03902C12.2271 8.55002 11.9531 8.56302 11.9531 8.56302C12.163 7.85574 12.2641 7.12068 12.2531 6.38302C12.2851 4.63702 10.8821 2.91602 8.3421 2.91602C5.7671 2.91602 5.6591 4.33502 5.6981 6.08202C5.74422 6.78186 5.88898 7.47168 6.1281 8.13102C6.26405 8.51708 6.33928 8.92189 6.3511 9.33102C6.3251 9.83102 6.5511 9.25202 6.6911 9.92002C6.72822 10.2256 6.85172 10.5142 7.0471 10.752C7.12936 11.2077 7.24433 11.6569 7.3911 12.096C7.56774 13.1282 7.68161 14.1701 7.7321 15.216C7.14395 15.3045 6.56938 15.4671 6.0221 15.7C5.8481 15.9 5.2151 15.952 4.8571 16.029C4.17885 16.2232 3.51126 16.4528 2.8571 16.717C2.2381 16.929 1.5931 16.881 1.2791 18.233C1.2311 18.445 1.1791 18.671 1.4041 18.671L16.0041 18.821C16.2321 18.822 16.7421 19.034 16.6941 18.822Z" fill="#479882"/>
<path d="M18.991 18.5461C18.653 17.0551 16.727 16.3291 16.061 16.0941C15.2566 15.8915 14.4413 15.7349 13.619 15.6251C13.2043 15.5505 12.8154 15.3715 12.489 15.1051C12.3736 14.3403 12.3484 13.5647 12.414 12.7941C12.6198 12.4704 12.7984 12.1302 12.948 11.7771C13.1203 11.1946 13.252 10.6008 13.342 10.0001C13.342 10.0001 13.726 10.0001 13.862 9.32506C14.0408 8.81771 14.1574 8.29052 14.209 7.75506C14.181 7.21606 13.886 7.23006 13.886 7.23006C14.1102 6.45019 14.2177 5.64142 14.205 4.83006C14.2019 4.29627 14.0883 3.76892 13.8711 3.28128C13.654 2.79364 13.3381 2.35631 12.9435 1.99689C12.5488 1.63747 12.0839 1.36377 11.5782 1.19306C11.0724 1.02235 10.5368 0.958333 10.005 1.00506C7.23501 1.00506 5.75801 2.90506 5.80501 4.83006C5.79565 5.64088 5.90137 6.44893 6.11901 7.23006C6.11901 7.23006 5.81901 7.21606 5.79601 7.75506C5.84767 8.29051 5.96419 8.81771 6.14301 9.32506C6.27401 10.0001 6.66301 10.0001 6.66301 10.0001C6.75305 10.6008 6.8847 11.1946 7.05701 11.7771C7.20665 12.1302 7.38526 12.4704 7.59101 12.7941C7.6566 13.5647 7.63143 14.3403 7.51601 15.1051C7.18961 15.3715 6.80072 15.5505 6.38601 15.6251C5.56376 15.7349 4.74844 15.8915 3.94401 16.0941C3.27801 16.3281 1.35201 17.0551 1.01401 18.5461C1.00198 18.6011 1.00252 18.6582 1.01558 18.713C1.02863 18.7678 1.05388 18.819 1.08943 18.8627C1.12498 18.9064 1.16992 18.9415 1.22092 18.9655C1.27192 18.9894 1.32766 19.0016 1.38401 19.0011H18.625C18.6811 19.0012 18.7365 18.9887 18.7871 18.9646C18.8376 18.9404 18.8822 18.9052 18.9173 18.8615C18.9524 18.8178 18.9773 18.7668 18.9901 18.7122C19.0028 18.6576 19.0032 18.6008 18.991 18.5461Z" stroke="#0B5C46"/>
</svg>
