<svg width="20" height="20" viewBox="0 0 20 20" fill="none" xmlns="http://www.w3.org/2000/svg">
<path d="M16.694 18.8221C16.38 17.4711 14.594 16.8121 13.971 16.6001C13.2228 16.4164 12.4649 16.2745 11.701 16.1751C11.317 16.1079 10.9561 15.9456 10.651 15.7031C10.5436 15.0101 10.5201 14.3067 10.581 13.6081C10.7732 13.3153 10.9404 13.0069 11.081 12.6861C11.241 12.1584 11.3633 11.6201 11.447 11.0751C11.447 11.0751 11.804 11.0751 11.931 10.4631C12.0969 10.0036 12.2051 9.52526 12.253 9.03908C12.227 8.55008 11.953 8.56308 11.953 8.56308C12.1628 7.8558 12.264 7.12074 12.253 6.38308C12.285 4.63708 10.882 2.91608 8.34198 2.91608C5.76698 2.91608 5.65898 4.33508 5.69798 6.08208C5.7441 6.78192 5.88886 7.47174 6.12798 8.13108C6.26393 8.51714 6.33916 8.92195 6.35098 9.33108C6.32498 9.83108 6.55098 9.25208 6.69098 9.92008C6.7281 10.2256 6.85159 10.5143 7.04698 10.7521C7.12924 11.2078 7.24421 11.6569 7.39098 12.0961C7.56762 13.1282 7.68149 14.1701 7.73198 15.2161C7.14383 15.3045 6.56925 15.4672 6.02198 15.7001C5.84798 15.9001 5.21498 15.9521 4.85698 16.0291C4.17872 16.2232 3.51114 16.4529 2.85698 16.7171C2.23798 16.9291 1.59298 16.8811 1.27898 18.2331C1.23098 18.4451 1.17898 18.6711 1.40398 18.6711L16.004 18.8211C16.232 18.8221 16.742 19.0341 16.694 18.8221Z" fill="#F7F7F7"/>
<path d="M18.991 18.5461C18.653 17.0551 16.727 16.3291 16.061 16.0941C15.2566 15.8915 14.4413 15.7349 13.619 15.6251C13.2043 15.5505 12.8154 15.3715 12.489 15.1051C12.3736 14.3403 12.3484 13.5647 12.414 12.7941C12.6198 12.4704 12.7984 12.1302 12.948 11.7771C13.1203 11.1946 13.252 10.6008 13.342 10.0001C13.342 10.0001 13.726 10.0001 13.862 9.32506C14.0408 8.81771 14.1574 8.29052 14.209 7.75506C14.181 7.21606 13.886 7.23006 13.886 7.23006C14.1102 6.45019 14.2177 5.64142 14.205 4.83006C14.2019 4.29627 14.0883 3.76892 13.8711 3.28128C13.654 2.79364 13.3381 2.35631 12.9435 1.99689C12.5488 1.63747 12.0839 1.36377 11.5782 1.19306C11.0724 1.02235 10.5368 0.958333 10.005 1.00506C7.23501 1.00506 5.75801 2.90506 5.80501 4.83006C5.79565 5.64088 5.90137 6.44893 6.11901 7.23006C6.11901 7.23006 5.81901 7.21606 5.79601 7.75506C5.84767 8.29051 5.96419 8.81771 6.14301 9.32506C6.27401 10.0001 6.66301 10.0001 6.66301 10.0001C6.75305 10.6008 6.8847 11.1946 7.05701 11.7771C7.20665 12.1302 7.38526 12.4704 7.59101 12.7941C7.6566 13.5647 7.63143 14.3403 7.51601 15.1051C7.18961 15.3715 6.80072 15.5505 6.38601 15.6251C5.56376 15.7349 4.74844 15.8915 3.94401 16.0941C3.27801 16.3281 1.35201 17.0551 1.01401 18.5461C1.00198 18.6011 1.00252 18.6582 1.01558 18.713C1.02863 18.7678 1.05388 18.819 1.08943 18.8627C1.12498 18.9064 1.16992 18.9415 1.22092 18.9655C1.27192 18.9894 1.32766 19.0016 1.38401 19.0011H18.625C18.6811 19.0012 18.7365 18.9887 18.7871 18.9646C18.8376 18.9404 18.8822 18.9052 18.9173 18.8615C18.9524 18.8178 18.9773 18.7668 18.9901 18.7122C19.0028 18.6576 19.0032 18.6008 18.991 18.5461Z" stroke="#E8E8E8"/>
</svg>
