<svg width="20" height="20" viewBox="0 0 20 20" fill="none" xmlns="http://www.w3.org/2000/svg">
<path d="M5 8H18L17 13L6 14L5 8Z" fill="#479882"/>
<path d="M9 18.5C9 18.5989 8.97068 18.6956 8.91574 18.7778C8.86079 18.86 8.7827 18.9241 8.69134 18.9619C8.59998 18.9998 8.49945 19.0097 8.40245 18.9904C8.30546 18.9711 8.21637 18.9235 8.14645 18.8536C8.07652 18.7836 8.0289 18.6945 8.00961 18.5975C7.99031 18.5006 8.00022 18.4 8.03806 18.3087C8.0759 18.2173 8.13999 18.1392 8.22221 18.0843C8.30444 18.0293 8.40111 18 8.5 18C8.63261 18 8.75979 18.0527 8.85355 18.1464C8.94732 18.2402 9 18.3674 9 18.5ZM14.5 18C14.4011 18 14.3044 18.0293 14.2222 18.0843C14.14 18.1392 14.0759 18.2173 14.0381 18.3087C14.0002 18.4 13.9903 18.5006 14.0096 18.5975C14.0289 18.6945 14.0765 18.7836 14.1464 18.8536C14.2164 18.9235 14.3055 18.9711 14.4025 18.9904C14.4994 19.0097 14.6 18.9998 14.6913 18.9619C14.7827 18.9241 14.8608 18.86 14.9157 18.7778C14.9707 18.6956 15 18.5989 15 18.5C15 18.3674 14.9473 18.2402 14.8536 18.1464C14.7598 18.0527 14.6326 18 14.5 18Z" stroke="#479882" stroke-linecap="round" stroke-linejoin="round"/>
<path d="M1 1.00006H3.14C3.38116 0.997338 3.61519 1.08186 3.79895 1.23806C3.98272 1.39426 4.10384 1.61161 4.14 1.85006L4.62 5.00006M4.62 5.00006L6 14.0001L17 13.0001L19 5.00006H4.62Z" stroke="#0B5C46" stroke-linecap="round" stroke-linejoin="round"/>
</svg>
