<svg width="20" height="20" viewBox="0 0 20 20" fill="none" xmlns="http://www.w3.org/2000/svg">
<path d="M5 7.99994H18L17 12.9999L6 13.9999L5 7.99994Z" fill="#F7F7F7"/>
<path d="M9 18.4999C9 18.5988 8.97068 18.6955 8.91574 18.7777C8.86079 18.8599 8.7827 18.924 8.69134 18.9619C8.59998 18.9997 8.49945 19.0096 8.40245 18.9903C8.30546 18.971 8.21637 18.9234 8.14645 18.8535C8.07652 18.7836 8.0289 18.6945 8.00961 18.5975C7.99031 18.5005 8.00022 18.4 8.03806 18.3086C8.0759 18.2172 8.13999 18.1391 8.22221 18.0842C8.30444 18.0293 8.40111 17.9999 8.5 17.9999C8.63261 17.9999 8.75979 18.0526 8.85355 18.1464C8.94732 18.2402 9 18.3673 9 18.4999ZM14.5 17.9999C14.4011 17.9999 14.3044 18.0293 14.2222 18.0842C14.14 18.1391 14.0759 18.2172 14.0381 18.3086C14.0002 18.4 13.9903 18.5005 14.0096 18.5975C14.0289 18.6945 14.0765 18.7836 14.1464 18.8535C14.2164 18.9234 14.3055 18.971 14.4025 18.9903C14.4994 19.0096 14.6 18.9997 14.6913 18.9619C14.7827 18.924 14.8608 18.8599 14.9157 18.7777C14.9707 18.6955 15 18.5988 15 18.4999C15 18.3673 14.9473 18.2402 14.8536 18.1464C14.7598 18.0526 14.6326 17.9999 14.5 17.9999Z" stroke="#F7F7F7" stroke-linecap="round" stroke-linejoin="round"/>
<path d="M1 0.999942H3.14C3.38116 0.997216 3.61519 1.08174 3.79895 1.23794C3.98272 1.39414 4.10384 1.61149 4.14 1.84994L4.62 4.99994L6 13.9999L17 12.9999L19 4.99994H4.62" stroke="#E8E8E8" stroke-linecap="round" stroke-linejoin="round"/>
</svg>
