<svg width="20" height="20" viewBox="0 0 20 20" fill="none" xmlns="http://www.w3.org/2000/svg">
<path d="M12.47 18.65C10.8564 19.1167 9.14362 19.1167 7.53002 18.65L8.90002 13.84C9.61783 14.0534 10.3822 14.0534 11.1 13.84L12.47 18.65ZM18.65 7.53L13.84 8.9C14.0534 9.61781 14.0534 10.3822 13.84 11.1L18.65 12.47C19.1167 10.8564 19.1167 9.1436 18.65 7.53ZM10 1C9.16428 0.999192 8.33264 1.11703 7.53002 1.35L8.90002 6.16C9.61783 5.9466 10.3822 5.9466 11.1 6.16L12.47 1.35C11.6674 1.11703 10.8358 0.999192 10 1ZM6.16002 8.9L1.35002 7.53C0.883326 9.1436 0.883326 10.8564 1.35002 12.47L6.16002 11.1C5.94662 10.3822 5.94662 9.61781 6.16002 8.9Z" fill="white"/>
<path d="M18.6501 12.4701C18.2298 13.9404 17.4419 15.2793 16.3606 16.3606C15.2793 17.4419 13.9404 18.2298 12.4701 18.6501L11.1001 13.8401C11.7542 13.6582 12.3502 13.3103 12.8302 12.8302C13.3103 12.3502 13.6582 11.7542 13.8401 11.1001L18.6501 12.4701ZM12.4701 1.3501L11.1001 6.1601C11.7542 6.34204 12.3502 6.68991 12.8302 7.16998C13.3103 7.65004 13.6582 8.24601 13.8401 8.9001L18.6501 7.5301C18.2298 6.05982 17.4419 4.72086 16.3606 3.63958C15.2793 2.5583 13.9404 1.77035 12.4701 1.3501ZM7.5301 1.3501C6.05982 1.77035 4.72086 2.5583 3.63958 3.63958C2.5583 4.72086 1.77035 6.05982 1.3501 7.5301L6.1601 8.9001C6.34204 8.24601 6.68991 7.65004 7.16998 7.16998C7.65004 6.68991 8.24601 6.34204 8.9001 6.1601L7.5301 1.3501ZM6.1601 11.1001L1.3501 12.4701C1.77035 13.9404 2.5583 15.2793 3.63958 16.3606C4.72086 17.4419 6.05982 18.2298 7.5301 18.6501L8.9001 13.8401C8.24601 13.6582 7.65004 13.3103 7.16998 12.8302C6.68991 12.3502 6.34204 11.7542 6.1601 11.1001Z" fill="#479882"/>
<path d="M12.47 18.65C10.8564 19.1167 9.14362 19.1167 7.53002 18.65L8.90002 13.84C9.61783 14.0534 10.3822 14.0534 11.1 13.84L12.47 18.65ZM13.84 11.1C13.6581 11.7541 13.3102 12.3501 12.8301 12.8301C12.3501 13.3102 11.7541 13.6581 11.1 13.84L12.47 18.65C13.9403 18.2297 15.2793 17.4418 16.3605 16.3605C17.4418 15.2792 18.2298 13.9403 18.65 12.47L13.84 11.1ZM18.65 7.53L13.84 8.9C14.0534 9.61781 14.0534 10.3822 13.84 11.1L18.65 12.47C19.1167 10.8564 19.1167 9.1436 18.65 7.53V7.53ZM12.47 1.35L11.1 6.16C11.7541 6.34195 12.3501 6.68982 12.8301 7.16989C13.3102 7.64995 13.6581 8.24592 13.84 8.9L18.65 7.53C18.2298 6.05972 17.4418 4.72077 16.3605 3.63949C15.2793 2.5582 13.9403 1.77026 12.47 1.35V1.35ZM10 1C9.16428 0.999192 8.33264 1.11703 7.53002 1.35L8.90002 6.16C9.61783 5.9466 10.3822 5.9466 11.1 6.16L12.47 1.35C11.6674 1.11703 10.8358 0.999192 10 1V1ZM7.53002 1.35C6.05974 1.77026 4.72079 2.5582 3.63951 3.63949C2.55822 4.72077 1.77028 6.05972 1.35002 7.53L6.16002 8.9C6.34197 8.24592 6.68984 7.64995 7.1699 7.16989C7.64997 6.68982 8.24594 6.34195 8.90002 6.16L7.53002 1.35ZM6.16002 8.9L1.35002 7.53C0.883326 9.1436 0.883326 10.8564 1.35002 12.47L6.16002 11.1C5.94662 10.3822 5.94662 9.61781 6.16002 8.9V8.9ZM6.16002 11.1L1.35002 12.47C1.77028 13.9403 2.55822 15.2792 3.63951 16.3605C4.72079 17.4418 6.05974 18.2297 7.53002 18.65L8.90002 13.84C8.24594 13.6581 7.64997 13.3102 7.1699 12.8301C6.68984 12.3501 6.34197 11.7541 6.16002 11.1V11.1Z" stroke="#0B5C46" stroke-linecap="round" stroke-linejoin="round"/>
</svg>
