<svg width="20" height="20" viewBox="0 0 20 20" fill="none" xmlns="http://www.w3.org/2000/svg">
<path d="M12.47 18.65C10.8564 19.1167 9.14362 19.1167 7.53002 18.65L8.90002 13.84C9.61783 14.0534 10.3822 14.0534 11.1 13.84L12.47 18.65ZM18.65 7.53L13.84 8.9C14.0534 9.61781 14.0534 10.3822 13.84 11.1L18.65 12.47C19.1167 10.8564 19.1167 9.1436 18.65 7.53ZM10 1C9.16428 0.999192 8.33264 1.11703 7.53002 1.35L8.90002 6.16C9.61783 5.9466 10.3822 5.9466 11.1 6.16L12.47 1.35C11.6674 1.11703 10.8358 0.999192 10 1ZM6.16002 8.9L1.35002 7.53C0.883326 9.1436 0.883326 10.8564 1.35002 12.47L6.16002 11.1C5.94662 10.3822 5.94662 9.61781 6.16002 8.9Z" fill="white"/>
<path d="M18.65 12.47C18.2297 13.9403 17.4418 15.2792 16.3605 16.3605C15.2792 17.4418 13.9403 18.2297 12.47 18.65L11.1 13.84C11.7541 13.6581 12.35 13.3102 12.8301 12.8301C13.3102 12.3501 13.658 11.7541 13.84 11.1L18.65 12.47ZM12.47 1.35001L11.1 6.16001C11.7541 6.34195 12.35 6.68982 12.8301 7.16989C13.3102 7.64995 13.658 8.24592 13.84 8.90001L18.65 7.53001C18.2297 6.05973 17.4418 4.72077 16.3605 3.63949C15.2792 2.55821 13.9403 1.77026 12.47 1.35001ZM7.52998 1.35001C6.0597 1.77026 4.72074 2.55821 3.63946 3.63949C2.55818 4.72077 1.77023 6.05973 1.34998 7.53001L6.15998 8.90001C6.34192 8.24592 6.68979 7.64995 7.16986 7.16989C7.64992 6.68982 8.24589 6.34195 8.89998 6.16001L7.52998 1.35001ZM6.15998 11.1L1.34998 12.47C1.77023 13.9403 2.55818 15.2792 3.63946 16.3605C4.72074 17.4418 6.0597 18.2297 7.52998 18.65L8.89998 13.84C8.24589 13.6581 7.64992 13.3102 7.16986 12.8301C6.68979 12.3501 6.34192 11.7541 6.15998 11.1Z" fill="#F7F7F7"/>
<path d="M12.47 18.65C10.8564 19.1167 9.14362 19.1167 7.53002 18.65L8.90002 13.84C9.61783 14.0534 10.3822 14.0534 11.1 13.84L12.47 18.65ZM13.84 11.1C13.6581 11.7541 13.3102 12.3501 12.8301 12.8301C12.3501 13.3102 11.7541 13.6581 11.1 13.84L12.47 18.65C13.9403 18.2297 15.2793 17.4418 16.3605 16.3605C17.4418 15.2792 18.2298 13.9403 18.65 12.47L13.84 11.1ZM18.65 7.53L13.84 8.9C14.0534 9.61781 14.0534 10.3822 13.84 11.1L18.65 12.47C19.1167 10.8564 19.1167 9.1436 18.65 7.53V7.53ZM12.47 1.35L11.1 6.16C11.7541 6.34195 12.3501 6.68982 12.8301 7.16989C13.3102 7.64995 13.6581 8.24592 13.84 8.9L18.65 7.53C18.2298 6.05972 17.4418 4.72077 16.3605 3.63949C15.2793 2.5582 13.9403 1.77026 12.47 1.35V1.35ZM10 1C9.16428 0.999192 8.33264 1.11703 7.53002 1.35L8.90002 6.16C9.61783 5.9466 10.3822 5.9466 11.1 6.16L12.47 1.35C11.6674 1.11703 10.8358 0.999192 10 1V1ZM7.53002 1.35C6.05974 1.77026 4.72079 2.5582 3.63951 3.63949C2.55822 4.72077 1.77028 6.05972 1.35002 7.53L6.16002 8.9C6.34197 8.24592 6.68984 7.64995 7.1699 7.16989C7.64997 6.68982 8.24594 6.34195 8.90002 6.16L7.53002 1.35ZM6.16002 8.9L1.35002 7.53C0.883326 9.1436 0.883326 10.8564 1.35002 12.47L6.16002 11.1C5.94662 10.3822 5.94662 9.61781 6.16002 8.9V8.9ZM6.16002 11.1L1.35002 12.47C1.77028 13.9403 2.55822 15.2792 3.63951 16.3605C4.72079 17.4418 6.05974 18.2297 7.53002 18.65L8.90002 13.84C8.24594 13.6581 7.64997 13.3102 7.1699 12.8301C6.68984 12.3501 6.34197 11.7541 6.16002 11.1V11.1Z" stroke="#E8E8E8" stroke-linecap="round" stroke-linejoin="round"/>
</svg>
