<svg width="45" height="45" viewBox="0 0 45 45" fill="none" xmlns="http://www.w3.org/2000/svg">
<path d="M40 0H5C2.23858 0 0 2.23858 0 5V40C0 42.7614 2.23858 45 5 45H40C42.7614 45 45 42.7614 45 40V5C45 2.23858 42.7614 0 40 0Z" fill="#0B5C46"/>
<path d="M16 14V28V14ZM16 28C15.6044 28 15.2178 28.1173 14.8889 28.3371C14.56 28.5568 14.3036 28.8692 14.1522 29.2346C14.0009 29.6001 13.9613 30.0022 14.0384 30.3902C14.1156 30.7781 14.3061 31.1345 14.5858 31.4142C14.8655 31.6939 15.2219 31.8844 15.6098 31.9616C15.9978 32.0387 16.3999 31.9991 16.7654 31.8478C17.1308 31.6964 17.4432 31.44 17.6629 31.1111C17.8827 30.7822 18 30.3956 18 30C18 29.4696 17.7893 28.9609 17.4142 28.5858C17.0391 28.2107 16.5304 28 16 28Z" stroke="white" stroke-width="2" stroke-linecap="round" stroke-linejoin="round"/>
<path d="M23 18V32V18ZM23 14C22.6044 14 22.2178 14.1173 21.8889 14.3371C21.56 14.5568 21.3036 14.8692 21.1522 15.2346C21.0009 15.6001 20.9613 16.0022 21.0384 16.3902C21.1156 16.7781 21.3061 17.1345 21.5858 17.4142C21.8655 17.6939 22.2219 17.8844 22.6098 17.9616C22.9978 18.0387 23.3999 17.9991 23.7654 17.8478C24.1308 17.6964 24.4432 17.44 24.6629 17.1111C24.8827 16.7822 25 16.3956 25 16C25 15.4696 24.7893 14.9609 24.4142 14.5858C24.0391 14.2107 23.5304 14 23 14Z" stroke="white" stroke-width="2" stroke-linecap="round" stroke-linejoin="round"/>
<path d="M30 25V32V25ZM30 21V14V21ZM30 21C29.6044 21 29.2178 21.1173 28.8889 21.3371C28.56 21.5568 28.3036 21.8692 28.1522 22.2346C28.0009 22.6001 27.9613 23.0022 28.0384 23.3902C28.1156 23.7781 28.3061 24.1345 28.5858 24.4142C28.8655 24.6939 29.2219 24.8844 29.6098 24.9616C29.9978 25.0387 30.3999 24.9991 30.7654 24.8478C31.1308 24.6964 31.4432 24.44 31.6629 24.1111C31.8827 23.7822 32 23.3956 32 23C32 22.4696 31.7893 21.9609 31.4142 21.5858C31.0391 21.2107 30.5304 21 30 21Z" stroke="white" stroke-width="2" stroke-linecap="round" stroke-linejoin="round"/>
</svg>
