<svg width="12" height="16" viewBox="0 0 12 16" fill="none" xmlns="http://www.w3.org/2000/svg">
<path d="M5.98233 0.514446C5.33447 0.507458 4.69159 0.628577 4.09045 0.870877C3.48932 1.11318 2.94173 1.4719 2.47899 1.92654C2.01625 2.38118 1.64745 2.92281 1.39367 3.52046C1.13989 4.1181 1.00612 4.76004 1 5.40956C1 9.0809 5.98233 14.5005 5.98233 14.5005C5.98233 14.5005 10.9647 9.0809 10.9647 5.40956C10.9585 4.76004 10.8248 4.1181 10.571 3.52046C10.3172 2.92281 9.94842 2.38118 9.48568 1.92654C9.02294 1.4719 8.47534 1.11318 7.87421 0.870877C7.27308 0.628577 6.63019 0.507458 5.98233 0.514446V0.514446ZM5.98233 7.15782C5.63905 7.15074 5.3055 7.04222 5.02349 6.84586C4.74148 6.64951 4.52356 6.37406 4.39706 6.05405C4.27056 5.73404 4.2411 5.38371 4.31238 5.04698C4.38366 4.71026 4.55251 4.40212 4.79776 4.16121C5.043 3.92029 5.35373 3.75733 5.69098 3.69273C6.02823 3.62814 6.377 3.6648 6.69356 3.79811C7.01011 3.93142 7.28037 4.15546 7.47044 4.44213C7.66052 4.72879 7.76195 5.06534 7.76202 5.40956C7.75703 5.87792 7.56677 6.32514 7.23307 6.65295C6.89937 6.98076 6.44951 7.16235 5.98233 7.15782V7.15782Z" stroke="#52575C"/>
</svg>
